<svg width="423" height="423" viewBox="0 0 423 423" fill="none" xmlns="http://www.w3.org/2000/svg">
<g filter="url(#filter0_d_183_7)">
<path d="M280.398 33.294L277.173 35.5267L280.397 33.294C274.446 24.699 263.405 21.2628 253.627 24.9626L218.255 38.3459L184.064 22.1845C174.612 17.7167 163.332 20.2615 156.714 28.3545L159.811 30.8867L156.714 28.3545L132.773 57.6305L95.0818 60.7303C95.0817 60.7304 95.0816 60.7304 95.0815 60.7304C84.6627 61.5866 76.166 69.4307 74.4817 79.7481C74.4817 79.7482 74.4816 79.7482 74.4816 79.7483L68.3864 117.072L37.2942 138.602L39.5714 141.891L37.2942 138.602C28.6988 144.554 25.263 155.595 28.9618 165.373L28.962 165.374L42.3457 200.745L26.185 234.935C26.185 234.935 26.185 234.935 26.1849 234.935C21.7167 244.388 24.261 255.668 32.3539 262.286L32.3541 262.286L61.6308 286.226L64.73 323.919C65.5866 334.337 73.4307 342.834 83.7477 344.519L121.072 350.613L142.602 381.706L145.719 379.547L142.602 381.706C148.554 390.302 159.595 393.737 169.374 390.038L169.374 390.037L204.744 376.654L238.935 392.815L238.935 392.816C248.388 397.283 259.668 394.739 266.286 386.646L263.342 384.238L266.286 386.646L290.227 357.369L327.918 354.27C338.337 353.413 346.834 345.569 348.518 335.252L354.614 297.927L385.706 276.398L383.473 273.173L385.706 276.398C394.301 270.446 397.737 259.405 394.037 249.626L380.654 214.256L396.816 180.065L396.816 180.064C401.283 170.612 398.739 159.332 390.645 152.714L361.369 128.773L358.27 91.0819C357.414 80.663 349.569 72.1661 339.252 70.4818C339.252 70.4818 339.252 70.4817 339.252 70.4817L301.927 64.386L280.398 33.294Z" stroke="black" stroke-width="8" shape-rendering="crispEdges"/>
</g>
<defs>
<filter id="filter0_d_183_7" x="-0.000488281" y="-0.000488281" width="423.001" height="423.001" filterUnits="userSpaceOnUse" color-interpolation-filters="sRGB">
<feFlood flood-opacity="0" result="BackgroundImageFix"/>
<feColorMatrix in="SourceAlpha" type="matrix" values="0 0 0 0 0 0 0 0 0 0 0 0 0 0 0 0 0 0 127 0" result="hardAlpha"/>
<feOffset dy="4"/>
<feGaussianBlur stdDeviation="10"/>
<feComposite in2="hardAlpha" operator="out"/>
<feColorMatrix type="matrix" values="0 0 0 0 0 0 0 0 0 0 0 0 0 0 0 0 0 0 0.55 0"/>
<feBlend mode="normal" in2="BackgroundImageFix" result="effect1_dropShadow_183_7"/>
<feBlend mode="normal" in="SourceGraphic" in2="effect1_dropShadow_183_7" result="shape"/>
</filter>
</defs>
</svg>
